<?xml version="1.0" encoding="iso-8859-1"?>
<!-- Generator: Adobe Illustrator 19.0.0, SVG Export Plug-In . SVG Version: 6.00 Build 0)  -->
<svg version="1.1" id="Layer_1" xmlns="http://www.w3.org/2000/svg" xmlns:xlink="http://www.w3.org/1999/xlink" x="0px" y="0px"
	 viewBox="0 0 512.002 512.002" style="enable-background:new 0 0 512.002 512.002;" xml:space="preserve">
<g>
	<path style="fill:#D1E7F8;" d="M458.055,445.201H77.947c-8.139,0-14.799-6.659-14.799-14.799l0,0
		c0-8.139,6.659-14.799,14.799-14.799h380.109c8.139,0,14.799,6.659,14.799,14.799l0,0
		C472.854,438.541,466.195,445.201,458.055,445.201z"/>
	<path style="fill:#D1E7F8;" d="M363.417,504.396H185.133c-8.139,0-14.799-6.659-14.799-14.799l0,0
		c0-8.139,6.659-14.799,14.799-14.799h178.282c8.139,0,14.799,6.659,14.799,14.799l0,0
		C378.215,497.737,371.556,504.396,363.417,504.396z"/>
	<path style="fill:#D1E7F8;" d="M474.42,504.396h-56.178c-8.139,0-14.799-6.659-14.799-14.799l0,0
		c0-8.139,6.659-14.799,14.799-14.799h56.178c8.139,0,14.799,6.659,14.799,14.799l0,0C489.22,497.737,482.56,504.396,474.42,504.396
		z"/>
</g>
<path style="fill:#96C8EF;" d="M303.088,459.999L303.088,459.999c0-8.139,6.659-14.799,14.799-14.799H37.581
	c-8.139,0-14.799,6.659-14.799,14.799l0,0c0,8.139,6.659,14.799,14.799,14.799h280.305
	C309.747,474.798,303.088,468.138,303.088,459.999z"/>
<path style="fill:#78B9EB;" d="M126.723,459.999c0-8.139,6.659-14.799,14.799-14.799H37.581c-8.139,0-14.799,6.659-14.799,14.799
	c0,8.139,6.659,14.799,14.799,14.799h103.94C133.383,474.798,126.723,468.138,126.723,459.999z"/>
<g>
	<path style="fill:#B9D8F4;" d="M152.672,430.401c0-8.139,6.659-14.799,14.799-14.799H77.948c-8.139,0-14.799,6.659-14.799,14.799
		c0,8.139,6.659,14.798,14.799,14.798h89.524C159.331,445.201,152.672,438.541,152.672,430.401z"/>
	<path style="fill:#B9D8F4;" d="M259.859,489.598L259.859,489.598c0-8.139,6.659-14.798,14.799-14.798h-89.525
		c-8.139,0-14.799,6.659-14.799,14.798l0,0c0,8.139,6.659,14.798,14.799,14.798h89.525
		C266.518,504.396,259.859,497.737,259.859,489.598z"/>
</g>
<path style="fill:#FFDAAA;" d="M278.129,261.162c-82.878,0-150.304,65.635-150.304,146.312c0,4.489,4.116,8.128,9.193,8.128H419.24
	c5.076,0,9.193-1.131,9.193-8.128C428.432,326.798,361.007,261.162,278.129,261.162z"/>
<g>
	<path style="fill:#FFC477;" d="M369.055,342.682c-9.158-11.79-20.483-21.514-33.658-28.902c-3.662-2.054-4.966-6.689-2.913-10.353
		c2.055-3.662,6.688-4.965,10.353-2.913c14.956,8.387,27.818,19.436,38.229,32.839c2.576,3.316,2.064,8.21-1.34,10.669
		C375.298,347.218,370.553,344.611,369.055,342.682z"/>
	<path style="fill:#FFC477;" d="M385.396,372.437c-1.415-3.982-3.095-7.927-4.99-11.726c-1.875-3.758-0.348-8.324,3.411-10.199
		c3.758-1.873,8.324-0.348,10.199,3.411c2.168,4.346,4.088,8.861,5.709,13.419c1.407,3.957-0.6,8.486-4.617,9.712
		C389.885,378.648,386.503,375.551,385.396,372.437z"/>
	<path style="fill:#FFC477;" d="M127.825,407.474c0,7.334,4.116,8.128,9.193,8.128h63.887c-5.076,0-9.193-3.64-9.193-8.128
		c0-70.008,50.777-128.68,118.36-142.976c-10.299-2.179-20.984-3.338-31.944-3.338C195.25,261.162,127.825,326.798,127.825,407.474z
		"/>
	<path style="fill:#FFC477;" d="M227.879,388.702c-2.358,0-4.656-0.953-6.31-2.62c-1.668-1.656-2.62-3.965-2.62-6.31
		c0-2.346,0.952-4.656,2.62-6.311c1.655-1.667,3.952-2.619,6.31-2.619c2.357,0,4.656,0.952,6.31,2.619
		c1.668,1.656,2.62,3.965,2.62,6.311c0,2.345-0.952,4.656-2.62,6.31C232.535,387.749,230.236,388.702,227.879,388.702z"/>
	<path style="fill:#FFC477;" d="M312.525,388.702c-2.358,0-4.656-0.953-6.31-2.62c-1.668-1.656-2.62-3.965-2.62-6.31
		c0-2.346,0.952-4.656,2.62-6.311c1.655-1.667,3.952-2.619,6.31-2.619c2.357,0,4.656,0.952,6.31,2.619
		c1.668,1.656,2.62,3.965,2.62,6.311c0,2.345-0.952,4.656-2.62,6.31C317.181,387.749,314.882,388.702,312.525,388.702z"/>
	<path style="fill:#FFC477;" d="M357.088,399.78c-2.358,0-4.656-0.953-6.31-2.62c-1.668-1.656-2.62-3.965-2.62-6.31
		c0-2.346,0.952-4.656,2.62-6.311c1.655-1.667,3.952-2.619,6.31-2.619c2.357,0,4.656,0.952,6.31,2.619
		c1.668,1.656,2.62,3.965,2.62,6.311c0,2.345-0.952,4.656-2.62,6.31C361.744,398.827,359.444,399.78,357.088,399.78z"/>
	<path style="fill:#FFC477;" d="M319.002,349.745c-2.358,0-4.656-0.953-6.31-2.62c-1.668-1.656-2.62-3.965-2.62-6.31
		c0-2.346,0.952-4.656,2.62-6.311c1.655-1.667,3.952-2.619,6.31-2.619c2.357,0,4.656,0.952,6.31,2.619
		c1.668,1.656,2.62,3.965,2.62,6.311c0,2.345-0.952,4.656-2.62,6.31C323.659,348.792,321.36,349.745,319.002,349.745z"/>
	<path style="fill:#FFC477;" d="M274.275,360.493c-2.358,0-4.656-0.953-6.31-2.62c-1.668-1.656-2.62-3.965-2.62-6.31
		c0-2.346,0.952-4.656,2.62-6.311c1.655-1.667,3.952-2.619,6.31-2.619c2.357,0,4.656,0.952,6.31,2.619
		c1.668,1.656,2.62,3.965,2.62,6.311c0,2.345-0.952,4.656-2.62,6.31C278.931,359.54,276.632,360.493,274.275,360.493z"/>
	<path style="fill:#FFC477;" d="M274.275,403.328c-2.358,0-4.656-0.953-6.31-2.62c-1.668-1.656-2.62-3.965-2.62-6.31
		c0-2.346,0.952-4.656,2.62-6.311c1.655-1.667,3.952-2.619,6.31-2.619c2.357,0,4.656,0.952,6.31,2.619
		c1.668,1.656,2.62,3.965,2.62,6.311c0,2.345-0.952,4.656-2.62,6.31C278.931,402.375,276.632,403.328,274.275,403.328z"/>
</g>
<circle style="fill:#FFE477;" cx="109.022" cy="171.535" r="71.001"/>
<path style="fill:#FFD422;" d="M109.019,212.116c-22.377,0-40.583-18.206-40.583-40.583s18.206-40.582,40.583-40.582
	s40.583,18.205,40.583,40.582S131.396,212.116,109.019,212.116z"/>
<path style="fill:#EEBF00;" d="M109.019,180.463c-2.358,0-4.656-0.953-6.31-2.62c-1.668-1.656-2.62-3.965-2.62-6.31
	c0-2.346,0.952-4.656,2.62-6.311c1.655-1.667,3.952-2.619,6.31-2.619c2.357,0,4.656,0.952,6.31,2.619
	c1.668,1.656,2.62,3.965,2.62,6.311c0,2.345-0.952,4.656-2.62,6.31C113.675,179.51,111.376,180.463,109.019,180.463z"/>
<g>
	<circle style="fill:#663A00;" cx="319.428" cy="107.753" r="17.912"/>
	<circle style="fill:#663A00;" cx="283.639" cy="100.535" r="17.912"/>
</g>
<path style="fill:#91CC04;" d="M398.899,154.82c-0.011-4.828-1.039-43.735-30.642-63.99c-15.296-10.467-35.386-13.913-59.709-10.245
	c-2.619,0.395-4.676,2.364-5.321,4.933c-1.462,5.827,4.165,7.535,4.685,7.698c4.06,1.274,12.735,4.688,25.222,13.233
	c18.075,12.368,36.334,30.106,54.27,52.719c0.409,0.515,5.213,7.227,10.377-0.358C398.612,157.59,398.974,156.188,398.899,154.82z"
	/>
<path style="fill:#85BB04;" d="M341.243,112.362c16.424,3.088,34.523,9.156,53.971,18.091
	c-3.784-13.271-11.442-29.008-26.958-39.624c-15.296-10.466-35.386-13.913-59.709-10.245c-2.619,0.395-4.676,2.364-5.321,4.932
	c-1.462,5.827,4.165,7.535,4.685,7.698c4.06,1.274,12.735,4.688,25.222,13.233C335.833,108.296,338.537,110.277,341.243,112.362z"/>
<path style="fill:#9CDD05;" d="M419.469,106.58c-2.1-4.347-19.868-38.976-55.32-44.421c-18.319-2.814-37.921,2.774-58.26,16.609
	c-2.19,1.489-3.192,4.156-2.661,6.75c1.204,5.885,7.016,4.989,7.555,4.912c4.212-0.608,13.51-1.287,28.464,1.011
	c21.648,3.325,45.785,11.412,71.742,24.034c0.592,0.288,7.828,4.258,9.2-4.815C420.41,109.2,420.129,107.781,419.469,106.58z"/>
<path style="fill:#91CC04;" d="M196.46,117.377c1.737-4.505,16.614-40.469,51.503-48.797c18.029-4.303,38.021-0.337,59.423,11.789
	c2.305,1.306,3.521,3.88,3.204,6.51c-0.719,5.964-6.585,5.547-7.128,5.513c-4.247-0.263-13.57-0.177-28.287,3.336
	c-21.303,5.085-44.698,15.118-69.537,29.82c-0.567,0.336-7.453,4.884-9.563-4.046C195.736,120.066,195.899,118.628,196.46,117.377z"
	/>
<path style="fill:#85BB04;" d="M310.589,86.88c0.317-2.629-0.9-5.204-3.204-6.51c-21.402-12.126-41.395-16.093-59.423-11.789
	c-18.284,4.365-31.064,16.317-39.344,27.356c6.727-0.436,13.271-0.661,19.527-0.661c13.597,0,26.13,1.034,37.353,3.071
	c3.269-0.977,6.499-1.86,9.677-2.619c14.717-3.513,24.04-3.598,28.287-3.336C304.005,92.426,309.872,92.843,310.589,86.88z"/>
<path style="fill:#9CDD05;" d="M194.504,64.97c3.516-3.309,32.494-29.29,67.55-21.696c18.115,3.925,34.421,16.155,48.465,36.349
	c1.512,2.175,1.494,5.023,0.071,7.255c-3.229,5.065-8.337,2.15-8.812,1.885c-3.715-2.074-12.156-6.033-26.943-9.237
	c-21.406-4.637-46.838-5.719-75.592-3.217c-0.656,0.057-8.833,1.176-6.869-7.786C192.688,67.081,193.458,65.855,194.504,64.97z"/>
<g>
	<path style="fill:#91CC04;" d="M398.452,79.009c-8.666-7.757-20.054-14.662-34.303-16.851c-18.319-2.814-37.921,2.774-58.26,16.609
		c-2.19,1.489-3.192,4.156-2.661,6.75c1.203,5.885,7.016,4.989,7.555,4.912c4.212-0.608,13.51-1.287,28.464,1.011
		c1.306,0.201,2.622,0.421,3.946,0.656c0.511-0.207,1.019-0.414,1.553-0.624C359.814,85.583,377.834,81.407,398.452,79.009z"/>
	<path style="fill:#91CC04;" d="M262.054,43.275c-14.09-3.053-27.193-0.677-38.061,3.466c18.4,9.614,33.731,19.96,45.695,30.849
		c0.425,0.387,0.824,0.761,1.228,1.138c1.32,0.253,2.627,0.519,3.919,0.799c14.787,3.204,23.228,7.162,26.943,9.237
		c0.475,0.266,5.583,3.18,8.812-1.885c1.423-2.233,1.442-5.08-0.071-7.255C296.474,59.429,280.168,47.199,262.054,43.275z"/>
</g>
<path style="fill:#CC7400;" d="M311.295,69.625c-3.464-1.091-7.217,0.447-8.924,3.654c-0.567,1.066-14.039,26.578-27.202,68.748
	c-12.098,38.761-26.121,99.424-24.3,168.492c-0.003,0.091-0.004,0.182-0.005,0.274c-0.155,12.063,19.612,14.578,27.331,14.578
	c0.001,0,0.001,0,0.003,0c8.665,0,30.081-4.276,28.705-15.347c-0.102-0.827-8.145-84.649,9.624-232.297
	C316.96,74.118,314.761,70.714,311.295,69.625z"/>
<path style="fill:#AA6100;" d="M270.307,315.523c0.001-0.091,0.002-0.181,0.005-0.274c-1.82-69.067,12.202-129.731,24.3-168.492
	c7.412-23.746,14.922-42.208,20.17-54c0.553-4.936,1.131-9.942,1.744-15.032c0.434-3.607-1.764-7.013-5.232-8.102
	c-3.464-1.091-7.217,0.446-8.924,3.654c-0.567,1.066-14.039,26.578-27.202,68.748c-12.098,38.761-26.121,99.424-24.3,168.492
	c-0.003,0.091-0.004,0.181-0.005,0.274c-0.146,11.346,17.329,14.245,25.83,14.55C272.919,323.136,270.249,319.984,270.307,315.523z"
	/>
<g>
	<path style="fill:#B2FA09;" d="M414.369,45.476c-3.997-2.709-36.728-23.767-70.136-10.708
		c-17.263,6.747-31.423,21.409-42.087,43.576c-1.148,2.387-0.679,5.196,1.081,7.175c3.992,4.489,8.572,0.801,9,0.463
		c3.34-2.638,11.045-7.885,25.138-13.393c20.399-7.974,45.338-13.075,74.125-15.164c0.656-0.048,8.908-0.239,5.547-8.778
		C416.496,47.272,415.542,46.183,414.369,45.476z"/>
	<path style="fill:#B2FA09;" d="M221.123,9.733c4.701-1.101,42.799-9.057,69.326,15.086c13.707,12.476,21.687,31.232,23.716,55.746
		c0.219,2.639-1.225,5.095-3.576,6.313c-5.333,2.764-8.291-2.319-8.57-2.786c-2.175-3.657-7.494-11.314-18.683-21.498
		c-16.197-14.743-37.662-28.427-63.797-40.675c-0.596-0.28-8.233-3.41-2.041-10.181C218.494,10.65,219.774,9.974,221.123,9.733z"/>
</g>
<path d="M363.417,467.194h-45.53c-3.967,0-7.194-3.228-7.194-7.195s3.227-7.194,7.194-7.194h140.169
	c12.354,0,22.403-10.05,22.403-22.404c0-12.353-10.049-22.402-22.403-22.402h-22.026c0.005-0.181,0.007-0.358,0.007-0.525
	c0-72.211-51.59-134.576-123.404-150.207c-0.084-29.646,1.081-71.46,5.733-124.045c0.355,0.014,0.709,0.043,1.066,0.043
	c8.859,0,16.764-4.533,21.354-11.563c13.544,11.056,27.17,25.18,40.646,42.171c3.052,3.963,6.997,6.13,11.145,6.13
	c0.116,0,0.232-0.002,0.349-0.005c2.997-0.088,7.363-1.358,11.141-6.908c1.714-2.517,2.555-5.438,2.434-8.461
	c-0.023-4.195-0.614-19.726-7.448-36.359c2.841,1.29,5.629,2.795,8.594,4.035c5.671,2.37,11.273,1.439,13.01,0.54
	c2.661-1.376,6.046-4.41,7.05-11.048c0.455-3.01-0.052-6.005-1.465-8.678c-2.399-4.929-12.35-23.561-31.137-36.467
	c5.472-0.669,11.104-1.223,16.91-1.644c5.133-0.298,9.229-2.446,11.533-6.051c1.615-2.526,3.023-6.849,0.563-13.101
	c-1.115-2.833-3.056-5.17-5.617-6.772c-4.343-2.924-25.452-16.158-51.355-16.158c-8.961,0-17.598,1.6-25.673,4.756
	c-10.055,3.931-19.173,10.261-27.227,18.889c-4.436-10.938-10.685-20.111-18.67-27.379C278.136,3.33,256.456,0,241.34,0
	c-10.889,0-19.234,1.703-21.784,2.29c-2.967,0.58-5.615,2.069-7.67,4.317c-4.533,4.958-4.763,9.498-4.158,12.434
	c0.863,4.189,3.92,7.661,8.583,9.763c5.278,2.474,10.345,5.007,15.221,7.593c-22.126,5.323-38.068,19.133-42.115,22.918
	c-2.276,1.99-3.821,4.605-4.472,7.58c-1.438,6.562,0.639,10.606,2.635,12.844c2.848,3.192,7.23,4.666,12.32,4.146
	c3.212-0.28,6.374-0.508,9.497-0.697c-12.354,13.113-18.467,27.433-19.971,31.293c-1.19,2.779-1.451,5.805-0.751,8.769
	c1.544,6.536,5.119,9.41,7.935,10.438c4.473,1.633,10.174,0.072,12.901-1.597c17.484-10.35,34.18-18.297,49.863-23.768
	c2.207,6.848,7.231,12.493,13.79,15.459c-1.738,5.025-3.499,10.356-5.254,15.978c-9.01,28.867-19.075,69.764-23.05,117.244
	c-33.925,7.132-64.81,25.213-87.404,51.292c-24.012,27.716-37.236,62.937-37.236,99.177c0,0.177,0.022,0.349,0.028,0.525H77.947
	c-12.353,0-22.403,10.049-22.403,22.402c0,2.515,0.417,4.936,1.185,7.196H37.581c-12.353,0-22.402,10.049-22.402,22.402
	c0,12.354,10.049,22.403,22.402,22.403h126.334c-0.768,2.26-1.185,4.679-1.185,7.195c0,12.354,10.05,22.403,22.403,22.403h178.283
	c12.353,0,22.402-10.049,22.402-22.403C385.819,477.245,375.77,467.194,363.417,467.194z M319.777,118.042
	c0.335-3.43,0.685-6.905,1.05-10.419c2.508,1.475,5.09,3.113,7.734,4.913C326.876,115.758,323.562,117.917,319.777,118.042z
	 M391.186,151.724c-17.715-21.922-55.414-52.674-56.235-53.216c1.034,0.137,27.999,5.682,41.545,10.556
	C388.387,124.649,390.731,144.033,391.186,151.724z M411.182,107.131c-29.969-17.292-76.131-23.955-78.696-24.217
	c2.284-1.051,26.169-9.572,36.716-11.897C392.914,77.622,406.745,99.113,411.182,107.131z M241.34,15.208
	c12.432,0,30.156,2.642,43.99,15.234c8.903,8.103,15.156,19.452,18.587,33.73c0.701,2.921,3.057,5.154,6.01,5.701
	c2.954,0.549,5.952-0.698,7.653-3.173c8.312-12.108,18.211-20.468,29.422-24.851c6.303-2.465,13.078-3.713,20.136-3.713
	c18.234,0,34.091,8.243,40.328,11.971c-28.092,2.296-52.592,7.471-72.871,15.399c-14.178,5.543-22.459,10.971-26.453,14.02
	c-2.614-4.24-8.404-12.283-19.689-22.554c-16.102-14.654-37.132-28.252-62.543-40.446C229.2,15.948,234.716,15.208,241.34,15.208z
	 M254.168,49.742c9.018,5.943,28.272,22.441,30.029,24.238c-2.489-0.672-33.489-10.137-82.151-5.532
	C209.063,62.54,229.658,47.424,254.168,49.742z M204.77,117.245c3.175-7.015,12.299-24.287,28.971-34.582
	c14.398,0.293,41.592,4.767,42.62,5.013C275.379,87.891,229.156,103.108,204.77,117.245z M273.908,103.887
	c1.015-0.263,5.867-1.414,7.253-1.703c-0.907,2.291-1.837,4.69-2.787,7.2C276.295,108.142,274.705,106.193,273.908,103.887z
	 M282.427,144.292c6.808-21.807,13.69-39.069,18.757-50.674c1.177,0.658,5.134,1.624,5.667,1.659
	c-15.149,137.67-7.585,214.977-7.488,215.746c-0.782,2.662-12.288,7.275-21.17,6.743c-16.111-0.964-19.728-6.956-19.728-6.956
	c0.006-0.168,0.007-0.331,0.003-0.492C256.676,242.278,270.508,182.478,282.427,144.292z M135.352,407.999
	c0.041-64.113,45.168-119.988,108.427-135.171c-0.639,12.228-0.851,24.829-0.516,37.724l-0.003,0.142
	c-0.062,4.797,1.739,9.189,5.207,12.702c9.191,9.31,27.653,9.578,29.732,9.578c5.75,0,24.01-2.092,32.216-11.381
	c3.187-3.607,4.584-7.903,4.043-12.432c-0.069-0.701-1.214-13.158-1.657-36.252c63.067,15.311,108.678,71.194,108.678,135.088
	H135.352V407.999z M363.417,496.792H185.133c-3.967,0-7.195-3.228-7.195-7.195s3.228-7.195,7.195-7.195h70.868
	c4.2,0,7.604-3.404,7.604-7.604s-3.404-7.604-7.604-7.604h-70.867l0,0H37.581c-3.967,0-7.194-3.228-7.194-7.195
	c0-3.967,3.227-7.194,7.194-7.194h40.366c0.007,0,0.013-0.001,0.019-0.001h149.913c4.199,0,7.604-3.404,7.604-7.604
	c0-4.2-3.405-7.604-7.604-7.604H77.947c-0.003,0-0.006,0-0.01,0c-3.963-0.005-7.185-3.23-7.185-7.195
	c0-3.967,3.228-7.194,7.195-7.194h380.109c3.967,0,7.195,3.227,7.195,7.194c0,3.968-3.228,7.196-7.195,7.196H317.886
	c-12.353,0-22.402,10.049-22.402,22.402c0,2.516,0.424,4.935,1.192,7.195h-13.031c-4.2,0-7.604,3.404-7.604,7.604
	s3.404,7.604,7.604,7.604h79.773c3.967,0,7.194,3.228,7.194,7.195S367.384,496.792,363.417,496.792z"/>
<path d="M474.42,467.194h-56.178c-12.354,0-22.403,10.049-22.403,22.403c0,12.354,10.05,22.402,22.403,22.402h56.178
	c12.354,0,22.403-10.049,22.403-22.403C496.824,477.243,486.774,467.194,474.42,467.194z M474.42,496.792h-56.178
	c-3.967,0-7.195-3.228-7.195-7.195s3.228-7.195,7.195-7.195h56.178c3.967,0,7.195,3.228,7.195,7.195S478.387,496.792,474.42,496.792
	z"/>
<path d="M109.019,250.136c43.342,0,78.603-35.261,78.603-78.603c0-42.051-32.878-76.537-74.848-78.514
	c-4.222-0.191-7.756,3.044-7.954,7.239s3.043,7.755,7.238,7.953c33.845,1.594,60.356,29.409,60.356,63.324
	c0,34.957-28.439,63.395-63.395,63.395s-63.395-28.44-63.395-63.396c0-26.519,16.726-50.454,41.619-59.557
	c3.944-1.443,5.972-5.809,4.529-9.753c-1.442-3.945-5.809-5.972-9.753-4.53c-30.865,11.288-51.603,40.963-51.603,73.841
	C30.417,214.875,65.678,250.136,109.019,250.136z"/>
<path d="M60.833,171.533c0,26.57,21.617,48.187,48.187,48.187s48.187-21.617,48.187-48.187s-21.617-48.186-48.187-48.186
	S60.833,144.962,60.833,171.533z M109.019,138.554c18.185,0,32.979,14.794,32.979,32.978c0,18.186-14.794,32.979-32.979,32.979
	s-32.979-14.793-32.979-32.978S90.835,138.554,109.019,138.554z"/>
<g>
</g>
<g>
</g>
<g>
</g>
<g>
</g>
<g>
</g>
<g>
</g>
<g>
</g>
<g>
</g>
<g>
</g>
<g>
</g>
<g>
</g>
<g>
</g>
<g>
</g>
<g>
</g>
<g>
</g>
</svg>
